# xmcd
#
# Track frame offsets:
#	150
#	28662
#	45507
#	66275
#	79887
#	90087
#	101745
#	117052
#	138987
#	145255
#	167347
#	198615
#	241309
#	252910
#	268372
#	285882
#
# Disc length: 4030 seconds
#
# Revision: 1
# Processed by: cddbd v1.5.1PL0 Copyright (c) Steve Scherf et al.
# Submitted via: CDex 1.50Beta5
#
DISCID=d90fbc10
DTITLE=さまざまなアーティスト - ANGEL'S VOICE Vol. 2
DYEAR=1900
DGENRE=Classical
TTITLE0=Benedicta es, coelorum Regina
TTITLE1=我ら、主に祈れり/主よ、彼らに永遠の安息を
TTITLE2=Ave verum corpus
TTITLE3=Hear my prayer, O Lord
TTITLE4=Judas mercator pessimus
TTITLE5=Unus ex discipulis
TTITLE6=Psalmen Davids 〜Der Herr sprach zu meinem Herrn〜
TTITLE7=BWV 230 "Lobet den Herrn, alle Heiden"
TTITLE8=さまざまなアーティスト/"Lobet den Herrn, alle Heiden" 〜Alleluja〜
TTITLE9=Geistliches lied
TTITLE10=Ein Deutsches Requiem 〜V. Ihr habt nun Traurigkeit〜
TTITLE11=Agnus Dei
TTITLE12=Ubi caritas et amor
TTITLE13=Requiem 〜Sanctus〜
TTITLE14=Requiem 〜Pie Jesu〜
TTITLE15=Requiem 〜In Paradisum〜
EXTD=
EXTT0=
EXTT1=
EXTT2=
EXTT3=
EXTT4=
EXTT5=
EXTT6=
EXTT7=
EXTT8=
EXTT9=
EXTT10=
EXTT11=
EXTT12=
EXTT13=
EXTT14=
EXTT15=
PLAYORDER=
